<svg xmlns="http://www.w3.org/2000/svg" width="48" height="48" viewBox="0 0 48 48" fill="none">
  <g clip-path="url(#clip0_474_13401)">
    <path d="M24 48C37.2548 48 48 37.2548 48 24C48 10.7452 37.2548 0 24 0C10.7452 0 0 10.7452 0 24C0 37.2548 10.7452 48 24 48Z" fill="#FBC85B"/>
    <path d="M32.7155 32.6663C32.6937 33.7676 31.7271 36.4433 28.3054 38.1012C26.9631 38.7544 25.4912 39.0938 24 39.0938C22.5088 39.0938 21.0369 38.7544 19.6946 38.1012C16.267 36.4493 15.3063 33.7676 15.2845 32.6663C15.245 32.0481 15.5613 31.3086 16.3994 31.5452C17.7673 32.0461 19.9141 32.3403 21.5785 32.4934C23.1892 32.6465 24.8108 32.6465 26.4215 32.4934C28.0859 32.3344 30.2327 32.0461 31.6006 31.5452C32.4387 31.3086 32.755 32.0481 32.7155 32.6663Z" fill="#9A695E"/>
    <path d="M26.5145 15.0891C26.1672 16.3927 26.3321 17.7146 27.0385 19.2532C27.6678 20.6299 28.7024 22.1313 29.9018 23.8692C30.3111 24.4629 30.7725 25.1373 31.2503 25.8478C31.3772 26.0358 31.5672 26.1721 31.786 26.2318C32.0061 26.2926 32.2409 26.2694 32.4449 26.1668C33.2157 25.7878 33.9378 25.4287 34.6046 25.1283C36.5122 24.2215 38.1589 23.4388 39.392 22.5639C40.7723 21.5821 41.5768 20.5211 41.9272 19.2167C42.2733 18.0074 42.1496 16.7119 41.581 15.5899C41.3046 15.058 40.9195 14.59 40.4507 14.2164C39.9818 13.8428 39.4397 13.5719 38.8595 13.4213C37.979 13.1801 37.0425 13.2473 36.2054 13.6117C35.7528 13.8025 35.3303 14.058 34.9513 14.3704C34.7793 13.9105 34.5425 13.4775 34.2483 13.0845C33.7046 12.356 32.9304 11.8329 32.0517 11.6003C31.4736 11.4417 30.8687 11.4058 30.2759 11.4948C29.683 11.5838 29.1153 11.7957 28.6092 12.1169C27.5625 12.8094 26.8147 13.8705 26.5145 15.0891Z" fill="#E46E80"/>
    <path d="M19.3854 12.1302C18.8793 11.8089 18.3116 11.597 17.7188 11.5081C17.1259 11.4191 16.521 11.455 15.9429 11.6135C15.0642 11.8462 14.29 12.3693 13.7463 13.0977C13.4521 13.4908 13.2154 13.9238 13.0433 14.3837C12.6643 14.0713 12.2418 13.8157 11.7892 13.625C10.9522 13.2605 10.0156 13.1934 9.13512 13.4345C8.55487 13.5852 8.01277 13.8561 7.54393 14.2297C7.07509 14.6033 6.69 15.0712 6.4136 15.6032C5.84497 16.7252 5.7213 18.0206 6.06736 19.23C6.41779 20.5344 7.22233 21.5953 8.60261 22.5772C9.83573 23.452 11.4824 24.2348 13.39 25.1415C14.0408 25.4512 14.7789 25.8011 15.5497 26.1801C15.7537 26.2827 15.9885 26.3058 16.2086 26.2451C16.4274 26.1853 16.6174 26.0491 16.7443 25.8611C17.2221 25.1506 17.6835 24.4762 18.0928 23.8825C19.2922 22.1446 20.3142 20.6398 20.9561 19.2665C21.6625 17.7279 21.8274 16.406 21.4801 15.1024C21.1799 13.8838 20.4321 12.8227 19.3854 12.1302Z" fill="#E46E80"/>
  </g>
  <defs>
    <clipPath id="clip0_474_13401">
      <rect width="48" height="48" fill="white"/>
    </clipPath>
  </defs>
</svg>