<svg xmlns="http://www.w3.org/2000/svg" width="48" height="48" viewBox="0 0 48 48" fill="none">
  <g clip-path="url(#clip0_474_10040)">
    <path d="M24 48C37.2548 48 48 37.2548 48 24C48 10.7452 37.2548 0 24 0C10.7452 0 0 10.7452 0 24C0 37.2548 10.7452 48 24 48Z" fill="#FBC85B"/>
    <path d="M19.3291 34.6203C19.3291 37.3906 17.2446 39.6343 14.6663 39.6343C12.088 39.6343 10.0034 37.3906 10.0034 34.6203C10.0034 32.4261 12.9081 28.4517 14.1177 26.8745C14.1788 26.7912 14.2588 26.7234 14.351 26.6767C14.4432 26.63 14.5451 26.6057 14.6484 26.6057C14.7518 26.6057 14.8537 26.63 14.9459 26.6767C15.0381 26.7234 15.118 26.7912 15.1792 26.8745C16.4244 28.4517 19.3291 32.4343 19.3291 34.6203Z" fill="#5195EE"/>
    <path d="M17.8125 21.75C19.2622 21.75 20.4375 20.5747 20.4375 19.125C20.4375 17.6753 19.2622 16.5 17.8125 16.5C16.3628 16.5 15.1875 17.6753 15.1875 19.125C15.1875 20.5747 16.3628 21.75 17.8125 21.75Z" fill="#3E414D"/>
    <path d="M30.1875 21.75C31.6372 21.75 32.8125 20.5747 32.8125 19.125C32.8125 17.6753 31.6372 16.5 30.1875 16.5C28.7378 16.5 27.5625 17.6753 27.5625 19.125C27.5625 20.5747 28.7378 21.75 30.1875 21.75Z" fill="#3E414D"/>
    <path d="M30.75 35.0625C28.9936 33.4339 26.6372 32.4375 24.0469 32.4375C23.5206 32.4375 23.0039 32.4786 22.5 32.5578" stroke="#9A695E" stroke-width="2.15054" stroke-linecap="round"/>
  </g>
  <defs>
    <clipPath id="clip0_474_10040">
      <rect width="48" height="48" fill="white"/>
    </clipPath>
  </defs>
</svg>