<svg xmlns="http://www.w3.org/2000/svg" width="48" height="48" viewBox="0 0 48 48" fill="none">
  <path d="M24 48C37.2548 48 48 37.2548 48 24C48 10.7452 37.2548 0 24 0C10.7452 0 0 10.7452 0 24C0 37.2548 10.7452 48 24 48Z" fill="#E46E80"/>
  <path d="M40.2578 28.6451H7.74173C6.88655 28.6451 6.19336 29.3384 6.19336 30.1935V41.0322C6.19336 41.8874 6.88664 42.5805 7.74173 42.5805H40.2579C41.1131 42.5805 41.8063 41.8873 41.8063 41.0322V30.1935C41.8062 29.3384 41.113 28.6451 40.2578 28.6451Z" fill="#494D59"/>
  <path d="M37.0947 37.5483L37.7086 36.9345C38.011 36.632 38.011 36.1421 37.7086 35.8398C37.4061 35.5373 36.9162 35.5373 36.6139 35.8398L36 36.4536L35.4576 35.9112C36.0185 35.4868 36.3871 34.8205 36.3871 34.0645C36.3871 32.7838 35.3452 31.7419 34.0645 31.7419C32.7838 31.7419 31.742 32.7838 31.742 34.0645C31.742 34.3126 31.7914 34.5471 31.8637 34.7715C31.248 35.3327 30.9062 36.1575 30.9776 37.0085C31.0956 38.3966 32.3325 39.4838 33.7939 39.4838C34.6024 39.4838 35.3871 39.1686 35.9875 38.6306L36.6139 39.2569C36.7651 39.4082 36.9632 39.4837 37.1613 39.4837C37.3594 39.4837 37.5575 39.4082 37.7087 39.2569C38.0111 38.9545 38.0111 38.4646 37.7087 38.1622L37.0947 37.5483ZM34.0645 33.2903C34.4916 33.2903 34.8387 33.6374 34.8387 34.0645C34.8387 34.4916 34.4916 34.8387 34.0645 34.8387C33.6374 34.8387 33.2903 34.4916 33.2903 34.0645C33.2903 33.6373 33.6373 33.2903 34.0645 33.2903ZM33.7939 37.9354C33.1414 37.9354 32.5699 37.4606 32.5199 36.8785C32.4929 36.5522 32.6023 36.2457 32.8075 36.0121C33.0749 36.1852 33.3803 36.3 33.7079 36.3511L34.8927 37.5359C34.5831 37.7871 34.1947 37.9354 33.7939 37.9354Z" fill="#F9FAFC"/>
  <path d="M16.7221 31.8969C16.3803 31.6413 15.8949 31.7094 15.6387 32.0519L10.9936 38.2455C10.7365 38.5872 10.8061 39.0726 11.1485 39.3288C11.2877 39.4332 11.4502 39.4838 11.612 39.4838C11.8479 39.4838 12.08 39.3772 12.232 39.1739L16.8771 32.9803C17.1341 32.6386 17.0645 32.1532 16.7221 31.8969Z" fill="#F9FAFC"/>
  <path d="M20.1292 37.1613C20.5571 37.1613 20.9034 36.8149 20.9034 36.3871V32.5161C20.9034 32.0882 20.557 31.7419 20.1292 31.7419C19.7012 31.7419 19.355 32.0883 19.355 32.5161V36.3871C19.355 36.815 19.7012 37.1613 20.1292 37.1613Z" fill="#F9FAFC"/>
  <path d="M20.1292 37.9355C19.7012 37.9355 19.355 38.2818 19.355 38.7097C19.355 39.1376 19.7013 39.4839 20.1292 39.4839H20.1368C20.5647 39.4839 20.9072 39.1376 20.9072 38.7097C20.9072 38.2818 20.557 37.9355 20.1292 37.9355Z" fill="#F9FAFC"/>
  <path d="M29.4193 33.2903H29.2492L29.3959 32.7037C29.5003 32.2894 29.2477 31.869 28.8327 31.7654C28.4176 31.6581 27.998 31.9129 27.8944 32.3287L27.6539 33.2903H26.1525L26.2993 32.7037C26.4036 32.2894 26.151 31.869 25.736 31.7654C25.3194 31.6581 24.9006 31.9129 24.7978 32.3287L24.5573 33.2903H24C23.5721 33.2903 23.2258 33.6367 23.2258 34.0645C23.2258 34.4924 23.5722 34.8387 24 34.8387H24.1702L23.7831 36.3871H23.2258C22.7979 36.3871 22.4517 36.7334 22.4517 37.1613C22.4517 37.5892 22.798 37.9355 23.2258 37.9355H23.396L23.2493 38.5222C23.1449 38.9364 23.3975 39.3568 23.8125 39.4604C23.8753 39.4763 23.9388 39.4838 24.0008 39.4838C24.3478 39.4838 24.6631 39.2495 24.7508 38.8972L24.9913 37.9355H26.4928L26.346 38.5222C26.2417 38.9364 26.4943 39.3568 26.9093 39.4604C26.972 39.4763 27.0356 39.4838 27.0975 39.4838C27.4446 39.4838 27.7599 39.2495 27.8475 38.8972L28.088 37.9355H28.6453C29.0732 37.9355 29.4194 37.5892 29.4194 37.1613C29.4194 36.7334 29.0731 36.3871 28.6453 36.3871H28.4751L28.8622 34.8387H29.4194C29.8474 34.8387 30.1936 34.4924 30.1936 34.0645C30.1936 33.6367 29.8473 33.2903 29.4193 33.2903ZM26.8798 36.3871H25.3783L25.7654 34.8387H27.2669L26.8798 36.3871Z" fill="#F9FAFC"/>
  <path d="M13.1612 33.2903C13.1612 32.4367 12.4664 31.7419 11.6128 31.7419C10.7592 31.7419 10.0645 32.4367 10.0645 33.2903C10.0645 34.1439 10.7592 34.8387 11.6128 34.8387C12.4664 34.8387 13.1612 34.1439 13.1612 33.2903Z" fill="#F9FAFC"/>
  <path d="M16.2578 36.3871C15.4043 36.3871 14.7095 37.0819 14.7095 37.9355C14.7095 38.7891 15.4043 39.4838 16.2578 39.4838C17.1114 39.4838 17.8062 38.7891 17.8062 37.9355C17.8062 37.0819 17.1114 36.3871 16.2578 36.3871Z" fill="#F9FAFC"/>
  <path d="M35.7618 13.0741C35.4978 12.6909 35.0591 12.6772 34.5899 12.857C34.5899 12.857 32.47 13.8275 31.1682 14.1581C29.8664 14.4887 27.7464 14.7942 27.7464 14.7942C27.3211 14.8779 26.839 15.2432 26.8669 15.7083C26.8948 16.1734 27.2945 16.5279 27.7597 16.4999L27.8473 16.4938C27.9008 16.4897 27.9777 16.4834 28.0761 16.4742C28.2729 16.4558 28.5556 16.4257 28.9074 16.3787C29.6103 16.2846 30.5925 16.1222 31.7174 15.8479C32.8787 15.5647 33.8241 15.1719 34.4824 14.8482C34.812 14.6861 35.0711 14.5406 35.251 14.4335C35.3409 14.3799 35.4112 14.3358 35.4607 14.3039L35.5459 14.2476C35.9296 13.9832 36.0263 13.4578 35.7618 13.0741Z" fill="#3E414D"/>
  <path d="M12.2172 13.0741C12.4812 12.6909 12.9199 12.6772 13.3891 12.8571C13.3891 12.8571 15.509 13.8275 16.8108 14.1581C18.1126 14.4887 20.2326 14.7942 20.2326 14.7942C20.6579 14.8779 21.14 15.2432 21.1121 15.7083C21.0842 16.1734 20.6845 16.5279 20.2193 16.4999L20.1317 16.4938C20.0783 16.4897 20.0013 16.4834 19.9029 16.4742C19.7061 16.4558 19.4234 16.4257 19.0716 16.3787C18.3687 16.2846 17.3865 16.1222 16.2616 15.8479C15.1004 15.5647 14.1549 15.1719 13.4966 14.8482C13.167 14.6861 12.9079 14.5406 12.728 14.4335C12.6381 14.3799 12.5678 14.3358 12.5183 14.3039L12.4331 14.2476C12.0494 13.9832 11.9527 13.4578 12.2172 13.0741Z" fill="#3E414D"/>
  <path d="M17.8125 24C19.2622 24 20.4375 22.8247 20.4375 21.375C20.4375 19.9253 19.2622 18.75 17.8125 18.75C16.3628 18.75 15.1875 19.9253 15.1875 21.375C15.1875 22.8247 16.3628 24 17.8125 24Z" fill="#3E414D"/>
  <path d="M30.1875 24C31.6372 24 32.8125 22.8247 32.8125 21.375C32.8125 19.9253 31.6372 18.75 30.1875 18.75C28.7378 18.75 27.5625 19.9253 27.5625 21.375C27.5625 22.8247 28.7378 24 30.1875 24Z" fill="#3E414D"/>
</svg>