<svg xmlns="http://www.w3.org/2000/svg" width="48" height="50" viewBox="0 0 48 50" fill="none">
  <path d="M24 48C37.2548 48 48 37.2548 48 24C48 10.7452 37.2548 0 24 0C10.7452 0 0 10.7452 0 24C0 37.2548 10.7452 48 24 48Z" fill="#FBC85B"/>
  <path d="M20.828 41.34L20.5537 39.985L24.0316 39.2773C24.2909 39.2199 24.5354 39.1093 24.7497 38.9526C24.9641 38.7959 25.1436 38.5964 25.2769 38.3667C25.5518 37.9192 25.6496 37.385 25.5512 36.8691C25.549 36.8472 25.549 36.8252 25.5512 36.8033C25.4271 36.3006 25.1162 35.8642 24.6817 35.5827C24.4673 35.4387 24.2266 35.3385 23.9733 35.2876C23.7201 35.2368 23.4594 35.2364 23.206 35.2865L13.436 37.2751C13.3599 37.2929 13.2809 37.2943 13.2043 37.2792C13.1277 37.264 13.0552 37.2327 12.9916 37.1873C12.8677 37.099 12.7808 36.9682 12.7475 36.8197C12.7273 36.7172 12.7349 36.6112 12.7694 36.5125L13.606 34.1592V34.1372C13.7086 33.754 13.7116 33.3509 13.6149 32.9661C13.5182 32.5813 13.3249 32.2276 13.0532 31.9384C12.7816 31.6492 12.4407 31.4341 12.0627 31.3134C11.6848 31.1928 11.2823 31.1706 10.8933 31.249C10.5734 31.3135 10.2706 31.4444 10.0046 31.6335C9.73858 31.8225 9.51525 32.0653 9.34909 32.3461L7.07252 36.2136C5.87651 38.2474 5.4759 40.652 5.94795 42.9637C6.37768 45.0803 7.63034 46.9397 9.43054 48.1329C11.2307 49.3262 13.4311 49.7558 15.548 49.3272C17.3079 48.9702 18.854 47.9287 19.8462 46.4319C20.8385 44.9351 21.1955 43.1055 20.8389 41.3455L20.828 41.34Z" fill="#E8AA26"/>
  <path d="M33.0352 12.7499C33.0352 12.7499 31.4 13.0508 29.482 14.2167C27.5639 15.3827 26.3439 16.4645 26.3439 16.4645" stroke="#3E414D" stroke-width="1.79211" stroke-linecap="round" stroke-linejoin="round"/>
  <path d="M13.4064 18.7619C13.4064 18.7619 14.9961 18.3992 17.2384 18.2982C18.0292 18.2626 18.7375 18.3044 19.3231 18.3735" stroke="#3E414D" stroke-width="1.79211" stroke-linecap="round" stroke-linejoin="round"/>
  <path d="M17.0625 25.5C18.5122 25.5 19.6875 24.3247 19.6875 22.875C19.6875 21.4253 18.5122 20.25 17.0625 20.25C15.6128 20.25 14.4375 21.4253 14.4375 22.875C14.4375 24.3247 15.6128 25.5 17.0625 25.5Z" fill="#3E414D"/>
  <rect x="28.9688" y="18" width="4.03125" height="7.03125" rx="2.01562" fill="#494D59"/>
  <path d="M29.8701 33.0141C27.8866 31.6714 25.4061 31.0448 22.8459 31.4385C22.3257 31.5185 21.8213 31.6377 21.3353 31.7926" stroke="#9A695E" stroke-width="2.15054" stroke-linecap="round"/>
</svg>