<svg width="144" height="144" viewBox="0 0 144 144" fill="none" xmlns="http://www.w3.org/2000/svg">
<g id="Frame 2609746">
<g id="Group 72">
<path id="Union" fill-rule="evenodd" clip-rule="evenodd" d="M87.8528 36.9426C101.912 51.0015 101.912 73.7954 87.8528 87.8543C73.7939 101.913 51 101.913 36.9411 87.8543C22.8823 73.7954 22.8823 51.0015 36.9411 36.9426C51 22.8837 73.7939 22.8837 87.8528 36.9426ZM94.1367 89.9073C108.467 73.4077 107.786 48.3907 92.0955 32.7C75.6934 16.2979 49.1005 16.2979 32.6985 32.7C16.2965 49.102 16.2965 75.6949 32.6985 92.0969C48.3853 107.784 73.3935 108.468 89.8932 94.1491L106.945 111.201C108.117 112.373 110.016 112.373 111.188 111.201C112.36 110.03 112.36 108.13 111.188 106.959L94.1367 89.9073Z" fill="#CBD3E1"/>
<rect id="Rectangle 306" x="47.0645" y="56.0625" width="4.5" height="6" rx="2.25" fill="#CBD3E1"/>
<rect id="Rectangle 307" x="71.0645" y="56.0625" width="4.5" height="6" rx="2.25" fill="#CBD3E1"/>
<rect id="Rectangle 304" x="57.5645" y="69.5625" width="9" height="3" fill="#CBD3E1"/>
</g>
</g>
</svg>
