<svg width="36" height="36" viewBox="0 0 36 36" fill="none" xmlns="http://www.w3.org/2000/svg">
<path fill-rule="evenodd" clip-rule="evenodd" d="M20 9C20 8.44772 20.4477 8 21 8H27C27.5523 8 28 8.44772 28 9V15C28 15.5523 27.5523 16 27 16C26.4477 16 26 15.5523 26 15V11.4142L14.7071 22.7071C14.3166 23.0976 13.6834 23.0976 13.2929 22.7071C12.9024 22.3166 12.9024 21.6834 13.2929 21.2929L24.5858 10H21C20.4477 10 20 9.55228 20 9ZM10.1333 13C9.83275 13 9.54449 13.1194 9.33195 13.3319C9.1194 13.5445 9 13.8328 9 14.1333V25.8667C9 26.1672 9.1194 26.4555 9.33195 26.6681C9.54449 26.8806 9.83276 27 10.1333 27H21.8667C22.1672 27 22.4555 26.8806 22.6681 26.6681C22.8806 26.4555 23 26.1672 23 25.8667V19.4667C23 18.9144 23.4477 18.4667 24 18.4667C24.5523 18.4667 25 18.9144 25 19.4667V25.8667C25 26.6977 24.6699 27.4947 24.0823 28.0823C23.4947 28.6699 22.6977 29 21.8667 29H10.1333C9.30232 29 8.50535 28.6699 7.91773 28.0823C7.33012 27.4947 7 26.6977 7 25.8667V14.1333C7 13.3023 7.33012 12.5053 7.91773 11.9177C8.50535 11.3301 9.30232 11 10.1333 11H16.5333C17.0856 11 17.5333 11.4477 17.5333 12C17.5333 12.5523 17.0856 13 16.5333 13H10.1333Z" fill="#ABABAB"/>
</svg>
