<svg width="152" height="48" viewBox="0 0 152 48" fill="none" xmlns="http://www.w3.org/2000/svg">
<path d="M42 14L25.9583 6.20066C25.6963 6.07327 25.3918 6.06648 25.1243 6.18205L7.03437 14L25.0813 22.7743C25.3726 22.9159 25.7144 22.9077 25.9985 22.7523L42 14Z" fill="#2B2B2B"/>
<path d="M7.03437 14L25.0813 22.7743C25.3726 22.9159 25.7144 22.9077 25.9985 22.7523L42 14L25.9583 6.20066C25.6963 6.07327 25.3918 6.06648 25.1243 6.18205L7.03437 14ZM7.03437 14C7.03437 14 6.08474 16.3916 6.00597 18C5.90857 19.989 7.03437 23 7.03437 23M42 23L25.9985 31.7523C25.7144 31.9077 25.3726 31.9159 25.0813 31.7743L7.03437 23M7.03437 23C7.03437 23 6.00597 26.0087 6.00597 28C6.00597 29.9913 7.03437 33 7.03437 33L25.0813 41.7743C25.3726 41.9159 25.7144 41.9077 25.9985 41.7523L42 33" stroke="#2B2B2B" stroke-width="4" stroke-linecap="round" stroke-linejoin="round"/>
<path d="M69.208 18.712H63.15V21.988H68.87V26.304H63.15V29.684H69.208V34H58.054V14.396H69.208V18.712ZM83.0741 27.37C83.0741 26.954 82.9961 26.564 82.8401 26.2C82.7015 25.8187 82.4935 25.4893 82.2161 25.212C81.9388 24.9347 81.6095 24.718 81.2281 24.562C80.8641 24.3887 80.4655 24.302 80.0321 24.302C79.6161 24.302 79.2261 24.38 78.8621 24.536C78.4981 24.692 78.1775 24.9087 77.9001 25.186C77.6401 25.4633 77.4235 25.7927 77.2501 26.174C77.0941 26.538 77.0161 26.928 77.0161 27.344C77.0161 27.76 77.0941 28.15 77.2501 28.514C77.4061 28.878 77.6228 29.1987 77.9001 29.476C78.1775 29.736 78.4981 29.9527 78.8621 30.126C79.2435 30.282 79.6421 30.36 80.0581 30.36C80.4741 30.36 80.8641 30.282 81.2281 30.126C81.5921 29.97 81.9041 29.7533 82.1641 29.476C82.4415 29.1987 82.6581 28.878 82.8141 28.514C82.9875 28.15 83.0741 27.7687 83.0741 27.37ZM77.1461 40.656H72.4401V20.662H77.1461V22.144C78.1515 20.8787 79.5208 20.246 81.2541 20.246C82.2075 20.246 83.0915 20.4367 83.9061 20.818C84.7381 21.182 85.4575 21.6847 86.0641 22.326C86.6708 22.9673 87.1388 23.7213 87.4681 24.588C87.8148 25.4547 87.9881 26.382 87.9881 27.37C87.9881 28.358 87.8148 29.2767 87.4681 30.126C87.1388 30.9753 86.6708 31.7207 86.0641 32.362C85.4748 33.0033 84.7728 33.506 83.9581 33.87C83.1435 34.234 82.2595 34.416 81.3061 34.416C79.6421 34.416 78.2555 33.844 77.1461 32.7V40.656ZM95.3766 20.662V34H90.6706V20.662H95.3766ZM90.3586 15.54C90.3586 15.176 90.4279 14.838 90.5666 14.526C90.7053 14.1967 90.8959 13.9107 91.1386 13.668C91.3813 13.4253 91.6586 13.2347 91.9706 13.096C92.2999 12.9573 92.6466 12.888 93.0106 12.888C93.3746 12.888 93.7126 12.9573 94.0246 13.096C94.3539 13.2347 94.6399 13.4253 94.8826 13.668C95.1253 13.9107 95.3159 14.1967 95.4546 14.526C95.5933 14.838 95.6626 15.176 95.6626 15.54C95.6626 15.904 95.5933 16.2507 95.4546 16.58C95.3159 16.892 95.1253 17.1693 94.8826 17.412C94.6399 17.6547 94.3539 17.8453 94.0246 17.984C93.7126 18.1227 93.3746 18.192 93.0106 18.192C92.6466 18.192 92.2999 18.1227 91.9706 17.984C91.6586 17.8453 91.3813 17.6547 91.1386 17.412C90.8959 17.1693 90.7053 16.892 90.5666 16.58C90.4279 16.2507 90.3586 15.904 90.3586 15.54ZM102.96 27.292C102.96 27.7253 103.038 28.1327 103.194 28.514C103.35 28.878 103.558 29.1987 103.818 29.476C104.096 29.7533 104.416 29.97 104.78 30.126C105.162 30.282 105.569 30.36 106.002 30.36C106.418 30.36 106.808 30.282 107.172 30.126C107.554 29.97 107.874 29.7533 108.134 29.476C108.412 29.1987 108.628 28.878 108.784 28.514C108.958 28.15 109.044 27.76 109.044 27.344C109.044 26.928 108.958 26.538 108.784 26.174C108.628 25.7927 108.412 25.4633 108.134 25.186C107.874 24.9087 107.554 24.692 107.172 24.536C106.808 24.38 106.418 24.302 106.002 24.302C105.586 24.302 105.188 24.38 104.806 24.536C104.442 24.692 104.122 24.9087 103.844 25.186C103.584 25.4633 103.368 25.784 103.194 26.148C103.038 26.4947 102.96 26.876 102.96 27.292ZM108.888 12.42H113.62V34H108.888V32.518C107.883 33.7833 106.522 34.416 104.806 34.416C103.836 34.416 102.943 34.234 102.128 33.87C101.314 33.506 100.603 33.0033 99.9965 32.362C99.3898 31.7207 98.9131 30.9667 98.5665 30.1C98.2371 29.2333 98.0725 28.2973 98.0725 27.292C98.0725 26.3387 98.2285 25.4373 98.5405 24.588C98.8698 23.7213 99.3291 22.9673 99.9185 22.326C100.508 21.6847 101.21 21.182 102.024 20.818C102.856 20.4367 103.766 20.246 104.754 20.246C106.418 20.246 107.796 20.8267 108.888 21.988V12.42ZM121.191 27.292C121.191 27.7253 121.269 28.1327 121.425 28.514C121.581 28.878 121.789 29.1987 122.049 29.476C122.326 29.7533 122.647 29.97 123.011 30.126C123.392 30.282 123.8 30.36 124.233 30.36C124.649 30.36 125.039 30.282 125.403 30.126C125.784 29.97 126.105 29.7533 126.365 29.476C126.642 29.1987 126.859 28.878 127.015 28.514C127.188 28.15 127.275 27.76 127.275 27.344C127.275 26.928 127.188 26.538 127.015 26.174C126.859 25.7927 126.642 25.4633 126.365 25.186C126.105 24.9087 125.784 24.692 125.403 24.536C125.039 24.38 124.649 24.302 124.233 24.302C123.8 24.302 123.392 24.38 123.011 24.536C122.647 24.692 122.326 24.9087 122.049 25.186C121.789 25.4633 121.581 25.784 121.425 26.148C121.269 26.4947 121.191 26.876 121.191 27.292ZM127.119 20.662H131.851V34H127.119V32.518C126.114 33.7833 124.753 34.416 123.037 34.416C122.066 34.416 121.174 34.2427 120.359 33.896C119.544 33.532 118.834 33.0293 118.227 32.388C117.62 31.7467 117.144 30.9927 116.797 30.126C116.468 29.2593 116.303 28.3147 116.303 27.292C116.303 26.3387 116.468 25.4373 116.797 24.588C117.126 23.7213 117.586 22.9673 118.175 22.326C118.764 21.6847 119.466 21.182 120.281 20.818C121.096 20.4367 121.997 20.246 122.985 20.246C124.649 20.246 126.027 20.8267 127.119 21.988V20.662ZM140.143 32.18L133.695 20.662H139.155L142.717 27.5L146.175 20.662H151.583L140.871 40.656H135.593L140.143 32.18Z" fill="#2B2B2B"/>
</svg>
